<svg viewBox="0 0 1024 1024" xmlns="http://www.w3.org/2000/svg">
    <path style="fill: #fff" d="M334.502981 491.975603C327.445564 524.250402 298.654134 548.492441 264.293737 548.492441c-9.160708 0-16.587473 7.424553-16.587473 16.587473s7.426765 16.587473 16.587473 16.587473c52.580078 0 96.256-38.830168 103.872968-89.320225 32.192968-3.481158 61.911084-17.826004 84.916803-41.307231 6.411611-6.544311 6.30324-17.047499-0.241071-23.456898-6.542099-6.407188-17.045287-6.305451-23.456898 0.23886C409.040449 448.589408 381.828147 460.025918 352.760259 460.025918c-59.146505 0-107.265659-48.119153-107.265659-107.265659 0-9.16292-7.426765-16.587473-16.587473-16.587473s-16.587473 7.424553-16.587473 16.587473C212.319654 424.008985 265.662756 482.991827 334.502981 491.975603zM404.734341 635.853132c0-9.16292-7.426765-16.587473-16.587473-16.587473-77.439171 0-140.440605 63.001434-140.440605 140.440605 0 0.800622 0.028752 1.603456 0.042022 2.406289C241.579957 761.280968 235.298834 760.812095 228.907127 760.812095c-9.160708 0-16.587473 7.424553-16.587473 16.587473s7.426765 16.587473 16.587473 16.587473c59.146505 0 107.265659 48.119153 107.265659 107.265659 0 9.16292 7.426765 16.587473 16.587473 16.587473s16.587473-7.424553 16.587473-16.587473c0-58.854566-36.408397-109.337987-87.871585-130.19397-0.393676-3.757616-0.594937-7.559464-0.594937-11.352467 0-59.146505 48.119153-107.265659 107.265659-107.265659C397.307577 652.440605 404.734341 645.016052 404.734341 635.853132zM970.920086 494.306695c0-37.764147-15.083542-73.551067-41.74514-99.869857 4.222065-13.508838 6.358531-27.482125 6.358531-41.676579 0-68.282886-48.99276-125.310618-113.666212-137.850747C826.810333 202.588337 829.37365 189.380285 829.37365 175.827214c0-43.253495-26.281192-80.475784-63.709166-96.563421C703.306644 29.598687 635.10559 0 582.773218 0c-29.090004 0-54.886842 14.305037-70.773218 36.235888C496.113624 14.305037 470.316786 0 441.226782 0c-52.332371 0-120.533425 29.598687-182.891266 79.263793C220.907542 95.35143 194.62635 132.573719 194.62635 175.827214c0 13.553071 2.563317 26.761123 7.506384 39.082298C137.459283 227.449641 88.466523 284.477374 88.466523 352.760259c0 14.194454 2.134255 28.165529 6.358531 41.676579C68.163456 420.755629 53.079914 456.542549 53.079914 494.306695c0 29.521279 9.17619 56.930419 24.799378 79.564579C61.643473 597.341443 53.079914 624.71962 53.079914 653.546436c0 51.062877 27.838203 97.848397 71.914436 122.517287C124.235749 782.371387 123.853132 788.736553 123.853132 795.092873c0 68.880035 44.929935 129.778177 110.118704 150.532423C262.327568 994.153607 313.978747 1024 370.453564 1024c61.915508 0 115.601417-35.78692 141.546436-87.745521 25.945019 51.9586 79.630929 87.745521 141.546436 87.745521 56.474816 0 108.125996-29.846393 136.481728-78.374704 65.188769-20.756458 110.118704-81.6546 110.118704-150.532423 0-6.35632-0.382618-12.721486-1.141218-19.029149C943.081883 751.394834 970.920086 704.609313 970.920086 653.546436c0-28.826816-8.563559-56.204994-24.799378-79.675162C961.743896 551.237114 970.920086 523.827974 970.920086 494.306695zM370.453564 990.825054c-46.509063 0-88.88895-25.642022-110.603058-66.916078-2.151948-4.089365-5.907352-7.095015-10.368276-8.295948C195.046566 900.962972 157.028078 851.404026 157.028078 795.092873c0-8.426436 0.849279-16.866143 2.523508-25.089106 1.552587-7.623603-2.404078-15.304708-9.514575-18.467387C111.290886 734.311948 86.25486 695.846704 86.25486 653.546436c0-19.239257 4.989512-37.629235 14.510721-53.918134C125.527361 621.459629 157.992363 634.7473 193.520518 634.7473c9.160708 0 16.587473-7.424553 16.587473-16.587473s-7.426765-16.587473-16.587473-16.587473C134.374013 601.572354 86.25486 553.453201 86.25486 494.306695c0-31.839102 14.048484-61.846946 38.544864-82.320311 5.529158-4.622376 7.442246-12.285788 4.732959-18.962799C124.295464 380.11632 121.641469 366.569883 121.641469 352.760259c0-59.146505 48.119153-107.265659 107.265659-107.265659s107.265659 48.119153 107.265659 107.265659c0 9.16292 7.426765 16.587473 16.587473 16.587473s16.587473-7.424553 16.587473-16.587473c0-74.404769-58.171162-135.448881-131.419231-140.119914C231.289089 201.54222 227.801296 188.922471 227.801296 175.827214c0-29.567724 17.949857-55.015119 43.521106-66.038048 0.988613-0.294151 1.957322-0.678981 2.892855-1.165546C282.137434 105.611335 290.716475 103.948164 299.680346 103.948164c27.771853 0 52.564596 15.528086 64.704415 40.528726 4.00311 8.242868 13.929054 11.679793 22.167499 7.674471 8.240657-4.000898 11.677581-13.924631 7.674471-22.165287-13.858281-28.537089-40.086393-49.048052-70.291076-56.313365C366.271309 47.840484 407.950099 33.174946 441.226782 33.174946c29.877356 0 54.185745 24.306177 54.185745 54.185745l0 214.644112c-14.904397-11.823551-33.727862-18.911931-54.185745-18.911931-9.160708 0-16.587473 7.424553-16.587473 16.587473s7.426765 16.587473 16.587473 16.587473c29.877356 0 54.185745 24.306177 54.185745 54.185745l0 398.716406c-20.623758-26.608518-49.698281-46.690419-83.899438-55.879879-8.844441-2.368691-17.945434 2.868527-20.322972 11.715179-2.377538 8.848864 2.868527 17.947646 11.715179 20.322972C457.371922 759.962816 495.412527 809.528397 495.412527 865.866091 495.412527 934.768242 439.355715 990.825054 370.453564 990.825054zM873.962989 751.538592c-7.110497 3.162678-11.067162 10.841572-9.514575 18.467387 1.674229 8.222963 2.523508 16.66267 2.523508 25.089106 0 56.311153-38.018488 105.870099-92.454151 120.520156-4.460924 1.200933-8.21854 4.206583-10.368276 8.295948C742.435387 965.183032 700.055499 990.825054 653.546436 990.825054c-68.902151 0-124.958963-56.056812-124.958963-124.958963 0-4.664397-0.216743-9.288985-0.621477-13.869339 0.393676-1.417676 0.621477-2.906125 0.621477-4.449866L528.587473 299.680346c0-29.879568 24.308389-54.185745 54.185745-54.185745 9.160708 0 16.587473-7.424553 16.587473-16.587473s-7.426765-16.587473-16.587473-16.587473c-20.457883 0-39.281348 7.08838-54.185745 18.911931L528.587473 87.360691c0-29.879568 24.308389-54.185745 54.185745-54.185745 33.276683 0 74.955473 14.665538 117.291127 40.497762-30.204683 7.263102-56.432795 27.776276-70.291076 56.313365-4.00311 8.242868-0.566186 18.1666 7.674471 22.165287 8.240657 4.00311 18.164389 0.568397 22.167499-7.674471C671.755058 119.476251 696.547801 103.948164 724.319654 103.948164c8.96387 0 17.545123 1.663171 25.465089 4.675456 0.933322 0.486566 1.90203 0.869184 2.88622 1.163335C778.246635 120.809883 796.198704 146.257279 796.198704 175.827214c0 13.095257-3.487793 25.715006-10.127205 36.813132C712.82343 217.311378 654.652268 278.35549 654.652268 352.760259c0 9.16292 7.426765 16.587473 16.587473 16.587473s16.587473-7.424553 16.587473-16.587473c0-59.146505 48.119153-107.265659 107.265659-107.265659s107.265659 48.119153 107.265659 107.265659c0 13.809624-2.653996 27.35606-7.889002 40.263326-2.709287 6.679222-0.796199 14.340423 4.732959 18.962799C923.696657 432.459749 937.74514 462.467594 937.74514 494.306695c0 59.146505-48.119153 107.265659-107.265659 107.265659-9.160708 0-16.587473 7.424553-16.587473 16.587473s7.426765 16.587473 16.587473 16.587473c35.528156 0 67.993158-13.287672 92.754937-35.118998 9.523421 16.288898 14.510721 34.678877 14.510721 53.918134C937.74514 695.846704 912.709114 734.311948 873.962989 751.538592zM795.092873 530.799136c-34.360397 0-63.151827-24.242039-70.209244-56.516838C793.723853 465.298523 847.066955 406.31568 847.066955 335.066955c0-9.16292-7.426765-16.587473-16.587473-16.587473s-16.587473 7.424553-16.587473 16.587473c0 59.146505-48.119153 107.265659-107.265659 107.265659-29.067888 0-56.28019-11.43651-76.625279-32.204026-6.4094-6.542099-16.912587-6.650471-23.456898-0.23886s-6.652683 16.912587-0.241071 23.456898c23.005719 23.481227 52.723836 37.826073 84.916803 41.307231C698.836873 525.143914 742.512795 563.974082 795.092873 563.974082c9.160708 0 16.587473-7.424553 16.587473-16.587473S804.253581 530.799136 795.092873 530.799136zM742.012959 725.425486c-6.391706 0-12.672829 0.468873-18.841158 1.300458 0.01327-0.802834 0.042022-1.605667 0.042022-2.406289 0-77.439171-63.001434-140.440605-140.440605-140.440605-9.160708 0-16.587473 7.424553-16.587473 16.587473s7.426765 16.587473 16.587473 16.587473c59.146505 0 107.265659 48.119153 107.265659 107.265659 0 3.79079-0.201261 7.594851-0.594937 11.352467C637.980752 756.528104 601.572354 807.011525 601.572354 865.866091c0 9.16292 7.426765 16.587473 16.587473 16.587473s16.587473-7.424553 16.587473-16.587473c0-59.146505 48.119153-107.265659 107.265659-107.265659 9.160708 0 16.587473-7.424553 16.587473-16.587473S751.173667 725.425486 742.012959 725.425486z"/>
</svg>
