<svg height="512" viewBox="0 0 1024 1024" xmlns="http://www.w3.org/2000/svg">
    <path style="fill: #fff" d="M511.98465 960.490547c-247.303432 0-448.480314-201.206558-448.480314-448.50999C63.504336 264.711917 264.681218 63.509453 511.98465 63.509453S960.494641 264.681218 960.494641 511.980557C960.460872 759.283989 759.288083 960.490547 511.98465 960.490547L511.98465 960.490547zM511.98465 110.669542c-221.269499 0-401.316132 180.050726-401.316132 401.311015 0 221.303268 180.046632 401.345808 401.316132 401.345808 221.299175 0 401.341714-180.042539 401.341714-401.345808C913.296689 290.720268 733.283826 110.669542 511.98465 110.669542L511.98465 110.669542zM511.98465 776.326131c-87.917352 0-171.144892-38.515199-228.436736-105.652272-8.491395-9.866718-7.265474-24.774243 2.64013-33.230845 9.815553-8.491395 24.74866-7.261381 33.240055 2.64013 48.291866 56.600089 118.509091 89.078805 192.557574 89.078805 74.082252 0 144.291291-32.479739 192.591343-89.078805 8.521071-9.901511 23.393803-11.131525 33.235962-2.64013 9.905604 8.457626 11.131525 23.330358 2.64013 33.230845C683.164335 737.811955 599.897909 776.326131 511.98465 776.326131L511.98465 776.326131zM370.551454 505.129522l-5.719258 0c-20.947078 0-37.95545-17.008372-37.95545-37.951357L326.876746 399.225517c0-20.908192 17.008372-37.920658 37.95545-37.920658l5.719258 0c20.908192 0 37.920658 17.012466 37.920658 37.920658l0 67.952648C408.473135 488.12115 391.459646 505.129522 370.551454 505.129522L370.551454 505.129522zM659.142222 505.129522l-5.727445 0c-20.908192 0-37.916565-17.008372-37.916565-37.951357L615.498212 399.225517c0-20.908192 17.008372-37.920658 37.916565-37.920658l5.727445 0c20.908192 0 37.920658 17.012466 37.920658 37.920658l0 67.952648C697.062879 488.12115 680.050414 505.129522 659.142222 505.129522L659.142222 505.129522z"/>
</svg>
